SA Beginner-Extrabold.ufo
<glyph name="exclam" format="2">
  <advance width="296"/>
  <unicode hex="0021"/>
  <outline>
    <contour>
      <point x="133" y="176" type="curve" smooth="yes"/>
      <point x="152" y="176"/>
      <point x="182" y="185"/>
      <point x="186" y="220" type="curve" smooth="yes"/>
      <point x="227" y="587" type="line" smooth="yes"/>
      <point x="232" y="633"/>
      <point x="212" y="650"/>
      <point x="181" y="650" type="curve" smooth="yes"/>
      <point x="162" y="650"/>
      <point x="132" y="641"/>
      <point x="128" y="607" type="curve" smooth="yes"/>
      <point x="87" y="240" type="line" smooth="yes"/>
      <point x="82" y="193"/>
      <point x="102" y="176"/>
    </contour>
    <contour>
      <point x="119" y="0" type="curve" smooth="yes"/>
      <point x="152" y="0"/>
      <point x="182" y="30"/>
      <point x="182" y="65" type="curve" smooth="yes"/>
      <point x="182" y="98"/>
      <point x="152" y="126"/>
      <point x="119" y="126" type="curve" smooth="yes"/>
      <point x="84" y="126"/>
      <point x="57" y="98"/>
      <point x="57" y="65" type="curve" smooth="yes"/>
      <point x="57" y="30"/>
      <point x="84" y="0"/>
    </contour>
  </outline>
</glyph>
<glyph name="dollar" format="2">
  <advance width="504"/>
  <unicode hex="0024"/>
  <outline>
    <contour>
      <point x="190" y="-4" type="curve" smooth="yes"/>
      <point x="306" y="-4"/>
      <point x="407" y="38"/>
      <point x="418" y="139" type="curve" smooth="yes"/>
      <point x="426" y="228"/>
      <point x="356" y="279"/>
      <point x="280" y="323" type="curve" smooth="yes"/>
      <point x="202" y="368"/>
      <point x="172" y="372"/>
      <point x="176" y="405" type="curve" smooth="yes"/>
      <point x="180" y="446"/>
      <point x="214" y="478"/>
      <point x="293" y="478" type="curve" smooth="yes"/>
      <point x="330" y="478"/>
      <point x="353" y="463"/>
      <point x="363" y="436" type="curve" smooth="yes"/>
      <point x="373" y="411"/>
      <point x="394" y="393"/>
      <point x="419" y="401" type="curve" smooth="yes"/>
      <point x="448" y="410"/>
      <point x="457" y="441"/>
      <point x="445" y="471" type="curve" smooth="yes"/>
      <point x="427" y="525"/>
      <point x="377" y="568"/>
      <point x="291" y="568" type="curve" smooth="yes"/>
      <point x="157" y="568"/>
      <point x="86" y="497"/>
      <point x="76" y="415" type="curve" smooth="yes"/>
      <point x="67" y="323"/>
      <point x="142" y="285"/>
      <point x="218" y="243" type="curve" smooth="yes"/>
      <point x="299" y="196"/>
      <point x="323" y="188"/>
      <point x="319" y="151" type="curve" smooth="yes"/>
      <point x="314" y="109"/>
      <point x="265" y="86"/>
      <point x="205" y="86" type="curve" smooth="yes"/>
      <point x="158" y="86"/>
      <point x="137" y="102"/>
      <point x="131" y="123" type="curve" smooth="yes"/>
      <point x="125" y="154"/>
      <point x="101" y="170"/>
      <point x="73" y="162" type="curve" smooth="yes"/>
      <point x="47" y="154"/>
      <point x="37" y="128"/>
      <point x="46" y="96" type="curve" smooth="yes"/>
      <point x="61" y="35"/>
      <point x="113" y="-4"/>
    </contour>
    <contour>
      <point x="209" y="-69" type="curve" smooth="yes"/>
      <point x="238" y="-69"/>
      <point x="259" y="-51"/>
      <point x="263" y="-18" type="curve" smooth="yes"/>
      <point x="326" y="569" type="line" smooth="yes"/>
      <point x="329" y="597"/>
      <point x="314" y="622"/>
      <point x="279" y="622" type="curve" smooth="yes"/>
      <point x="249" y="622"/>
      <point x="229" y="601"/>
      <point x="226" y="574" type="curve" smooth="yes"/>
      <point x="163" y="-12" type="line" smooth="yes"/>
      <point x="159" y="-48"/>
      <point x="176" y="-69"/>
    </contour>
  </outline>
</glyph>
<glyph name="percent" format="2">
  <advance width="778"/>
  <unicode hex="0025"/>
  <outline>
    <contour>
      <point x="184" y="0" type="curve" smooth="yes"/>
      <point x="204" y="0"/>
      <point x="217" y="10"/>
      <point x="233" y="32" type="curve" smooth="yes"/>
      <point x="627" y="566" type="line" smooth="yes"/>
      <point x="666" y="619"/>
      <point x="628" y="650"/>
      <point x="591" y="650" type="curve" smooth="yes"/>
      <point x="571" y="650"/>
      <point x="558" y="640"/>
      <point x="541" y="618" type="curve" smooth="yes"/>
      <point x="147" y="84" type="line" smooth="yes"/>
      <point x="108" y="31"/>
      <point x="147" y="0"/>
    </contour>
    <contour>
      <point x="194" y="314" type="curve" smooth="yes"/>
      <point x="290" y="314"/>
      <point x="380" y="416"/>
      <point x="380" y="535" type="curve" smooth="yes"/>
      <point x="380" y="603"/>
      <point x="337" y="650"/>
      <point x="263" y="650" type="curve" smooth="yes"/>
      <point x="167" y="650"/>
      <point x="76" y="549"/>
      <point x="76" y="429" type="curve" smooth="yes"/>
      <point x="76" y="361"/>
      <point x="120" y="314"/>
    </contour>
    <contour>
      <point x="200" y="410" type="curve" smooth="yes"/>
      <point x="183" y="410"/>
      <point x="177" y="425"/>
      <point x="177" y="439" type="curve" smooth="yes"/>
      <point x="177" y="490"/>
      <point x="211" y="554"/>
      <point x="257" y="554" type="curve" smooth="yes"/>
      <point x="274" y="554"/>
      <point x="280" y="539"/>
      <point x="280" y="525" type="curve" smooth="yes"/>
      <point x="280" y="470"/>
      <point x="241" y="410"/>
    </contour>
    <contour>
      <point x="513" y="0" type="curve" smooth="yes"/>
      <point x="609" y="0"/>
      <point x="700" y="101"/>
      <point x="700" y="221" type="curve" smooth="yes"/>
      <point x="700" y="289"/>
      <point x="656" y="336"/>
      <point x="582" y="336" type="curve" smooth="yes"/>
      <point x="486" y="336"/>
      <point x="396" y="234"/>
      <point x="396" y="115" type="curve" smooth="yes"/>
      <point x="396" y="47"/>
      <point x="439" y="0"/>
    </contour>
    <contour>
      <point x="519" y="96" type="curve" smooth="yes"/>
      <point x="502" y="96"/>
      <point x="496" y="111"/>
      <point x="496" y="125" type="curve" smooth="yes"/>
      <point x="496" y="176"/>
      <point x="530" y="240"/>
      <point x="576" y="240" type="curve" smooth="yes"/>
      <point x="593" y="240"/>
      <point x="599" y="225"/>
      <point x="599" y="211" type="curve" smooth="yes"/>
      <point x="599" y="156"/>
      <point x="561" y="96"/>
    </contour>
  </outline>
</glyph>
<glyph name="asterisk" format="2">
  <advance width="401"/>
  <unicode hex="002A"/>
  <outline>
    <contour>
      <point x="87" y="437" type="curve" smooth="yes"/>
      <point x="99" y="418"/>
      <point x="130" y="411"/>
      <point x="156" y="428" type="curve" smooth="yes"/>
      <point x="321" y="535" type="line" smooth="yes"/>
      <point x="346" y="551"/>
      <point x="354" y="575"/>
      <point x="338" y="598" type="curve" smooth="yes"/>
      <point x="326" y="614"/>
      <point x="296" y="621"/>
      <point x="273" y="606" type="curve" smooth="yes"/>
      <point x="104" y="497" type="line"/>
      <point x="83" y="481"/>
      <point x="73" y="458"/>
    </contour>
    <contour>
      <point x="342" y="430" type="curve" smooth="yes"/>
      <point x="354" y="448"/>
      <point x="350" y="470"/>
      <point x="327" y="487" type="curve" smooth="yes"/>
      <point x="163" y="608" type="line" smooth="yes"/>
      <point x="140" y="625"/>
      <point x="111" y="621"/>
      <point x="99" y="604" type="curve" smooth="yes"/>
      <point x="85" y="586"/>
      <point x="89" y="563"/>
      <point x="114" y="545" type="curve" smooth="yes"/>
      <point x="275" y="426" type="line"/>
      <point x="301" y="409"/>
      <point x="330" y="413"/>
    </contour>
    <contour>
      <point x="196" y="373" type="curve" smooth="yes"/>
      <point x="218" y="368"/>
      <point x="246" y="385"/>
      <point x="249" y="416" type="curve" smooth="yes"/>
      <point x="271" y="615" type="line" smooth="yes"/>
      <point x="275" y="647"/>
      <point x="252" y="667"/>
      <point x="228" y="667" type="curve" smooth="yes"/>
      <point x="207" y="667"/>
      <point x="185" y="650"/>
      <point x="182" y="623" type="curve" smooth="yes"/>
      <point x="160" y="424" type="line" smooth="yes"/>
      <point x="157" y="395"/>
      <point x="175" y="378"/>
    </contour>
  </outline>
</glyph>
<glyph name="plus" format="2">
  <advance width="426"/>
  <unicode hex="002B"/>
  <outline>
    <contour>
      <point x="200" y="68" type="curve" smooth="yes"/>
      <point x="218.0" y="68.0"/>
      <point x="242" y="76"/>
      <point x="245" y="105" type="curve" smooth="yes"/>
      <point x="269" y="327" type="line" smooth="yes"/>
      <point x="273" y="362"/>
      <point x="253" y="382.0"/>
      <point x="232" y="382" type="curve" smooth="yes"/>
      <point x="215.0" y="382.0"/>
      <point x="189" y="377"/>
      <point x="186" y="348" type="curve" smooth="yes"/>
      <point x="162" y="125" type="line" smooth="yes"/>
      <point x="158" y="86"/>
      <point x="179.0" y="68.0"/>
    </contour>
    <contour>
      <point x="100" y="184" type="curve" smooth="yes"/>
      <point x="327" y="184" type="line" smooth="yes"/>
      <point x="361.0" y="184.0"/>
      <point x="373.0" y="208.0"/>
      <point x="373" y="227" type="curve" smooth="yes"/>
      <point x="373.0" y="247.0"/>
      <point x="361.0" y="270.0"/>
      <point x="327" y="270" type="curve" smooth="yes"/>
      <point x="100" y="270" type="line" smooth="yes"/>
      <point x="66.0" y="270.0"/>
      <point x="54.0" y="247.0"/>
      <point x="54" y="227" type="curve" smooth="yes"/>
      <point x="54.0" y="207.0"/>
      <point x="66.0" y="184.0"/>
    </contour>
  </outline>
</glyph>
<glyph name="slash" format="2">
  <advance width="393"/>
  <unicode hex="002F"/>
  <outline>
    <contour>
      <point x="82" y="-52" type="curve" smooth="yes"/>
      <point x="101" y="-52"/>
      <point x="123" y="-42"/>
      <point x="131" y="-20" type="curve" smooth="yes"/>
      <point x="353" y="588" type="line" smooth="yes"/>
      <point x="366" y="624"/>
      <point x="334" y="650"/>
      <point x="304" y="650" type="curve" smooth="yes"/>
      <point x="284" y="650"/>
      <point x="262" y="639"/>
      <point x="253" y="614" type="curve" smooth="yes"/>
      <point x="32" y="8" type="line" smooth="yes"/>
      <point x="19" y="-27"/>
      <point x="50" y="-52"/>
    </contour>
  </outline>
</glyph>
<glyph name="zero" format="2">
  <advance width="509"/>
  <unicode hex="0030"/>
  <outline>
    <contour>
      <point x="221" y="-1" type="curve" smooth="yes"/>
      <point x="347" y="-1"/>
      <point x="438" y="109"/>
      <point x="459" y="288" type="curve" smooth="yes"/>
      <point x="479" y="461"/>
      <point x="410" y="568"/>
      <point x="277" y="568" type="curve" smooth="yes"/>
      <point x="151" y="568"/>
      <point x="60" y="456"/>
      <point x="39" y="275" type="curve" smooth="yes"/>
      <point x="19" y="104"/>
      <point x="89" y="-1"/>
    </contour>
    <contour>
      <point x="230" y="89" type="curve" smooth="yes"/>
      <point x="163" y="89"/>
      <point x="128" y="158"/>
      <point x="140" y="271" type="curve" smooth="yes"/>
      <point x="154" y="398"/>
      <point x="203" y="478"/>
      <point x="268" y="478" type="curve" smooth="yes"/>
      <point x="336" y="478"/>
      <point x="370" y="407"/>
      <point x="358" y="292" type="curve" smooth="yes"/>
      <point x="344" y="167"/>
      <point x="295" y="89"/>
    </contour>
  </outline>
</glyph>
<glyph name="four" format="2">
  <advance width="460"/>
  <unicode hex="0034"/>
  <outline>
    <contour>
      <point x="217" y="0" type="curve" smooth="yes"/>
      <point x="249" y="0"/>
      <point x="266" y="16"/>
      <point x="269" y="44" type="curve" smooth="yes"/>
      <point x="297" y="350" type="line" smooth="yes"/>
      <point x="300" y="379"/>
      <point x="285" y="401"/>
      <point x="258" y="402" type="curve" smooth="yes"/>
      <point x="230" y="403"/>
      <point x="208" y="391"/>
      <point x="205" y="363" type="curve" smooth="yes"/>
      <point x="175" y="59" type="line" smooth="yes"/>
      <point x="172" y="26"/>
      <point x="186" y="0"/>
    </contour>
    <contour>
      <point x="84" y="173" type="curve" smooth="yes"/>
      <point x="357" y="173" type="line" smooth="yes"/>
      <point x="385" y="173"/>
      <point x="402" y="193"/>
      <point x="403" y="219" type="curve" smooth="yes"/>
      <point x="404" y="243"/>
      <point x="386" y="263"/>
      <point x="358" y="263" type="curve" smooth="yes"/>
      <point x="107" y="263" type="line"/>
      <point x="134" y="233" type="line"/>
      <point x="164" y="519" type="line" smooth="yes"/>
      <point x="167" y="551"/>
      <point x="142" y="568"/>
      <point x="117" y="568" type="curve" smooth="yes"/>
      <point x="93" y="568"/>
      <point x="68" y="555"/>
      <point x="65" y="527" type="curve" smooth="yes"/>
      <point x="33" y="221" type="line" smooth="yes"/>
      <point x="30" y="196"/>
      <point x="52.0" y="173.0"/>
    </contour>
  </outline>
</glyph>
<glyph name="seven" format="2">
  <advance width="418"/>
  <unicode hex="0037"/>
  <outline>
    <contour>
      <point x="111" y="0" type="curve" smooth="yes"/>
      <point x="134" y="0"/>
      <point x="154" y="18"/>
      <point x="166" y="42" type="curve" smooth="yes"/>
      <point x="387" y="503" type="line" smooth="yes"/>
      <point x="404" y="538"/>
      <point x="387" y="568"/>
      <point x="345" y="568" type="curve" smooth="yes"/>
      <point x="112" y="568" type="line" smooth="yes"/>
      <point x="82" y="568"/>
      <point x="64" y="546"/>
      <point x="65" y="522" type="curve" smooth="yes"/>
      <point x="66" y="498"/>
      <point x="88" y="478"/>
      <point x="118" y="478" type="curve" smooth="yes"/>
      <point x="294" y="478" type="line"/>
      <point x="277" y="505" type="line"/>
      <point x="73" y="75" type="line" smooth="yes"/>
      <point x="50" y="27"/>
      <point x="84" y="0"/>
    </contour>
  </outline>
</glyph>
<glyph name="eight" format="2">
  <advance width="414"/>
  <unicode hex="0038"/>
  <outline>
    <contour>
      <point x="182" y="84" type="curve" smooth="yes"/>
      <point x="149" y="84"/>
      <point x="121" y="108"/>
      <point x="121" y="148" type="curve" smooth="yes"/>
      <point x="121" y="177"/>
      <point x="141" y="219"/>
      <point x="234" y="287" type="curve" smooth="yes"/>
      <point x="312" y="344"/>
      <point x="382" y="392"/>
      <point x="382" y="465" type="curve" smooth="yes"/>
      <point x="382" y="532"/>
      <point x="296" y="568"/>
      <point x="224" y="568" type="curve" smooth="yes"/>
      <point x="147" y="568"/>
      <point x="64" y="526"/>
      <point x="64" y="428" type="curve" smooth="yes"/>
      <point x="64" y="355"/>
      <point x="128" y="311"/>
      <point x="150" y="289" type="curve" smooth="yes"/>
      <point x="169" y="270" type="line" smooth="yes"/>
      <point x="205" y="234"/>
      <point x="252" y="190"/>
      <point x="252" y="147" type="curve" smooth="yes"/>
      <point x="252" y="113"/>
      <point x="223" y="84"/>
    </contour>
    <contour>
      <point x="183" y="-1" type="curve" smooth="yes"/>
      <point x="298" y="-1"/>
      <point x="347" y="86"/>
      <point x="347" y="156" type="curve" smooth="yes"/>
      <point x="347" y="218"/>
      <point x="293" y="275"/>
      <point x="242" y="322" type="curve" smooth="yes"/>
      <point x="217" y="345" type="line" smooth="yes"/>
      <point x="189" y="371"/>
      <point x="156" y="397"/>
      <point x="156" y="433" type="curve" smooth="yes"/>
      <point x="156" y="470"/>
      <point x="193" y="488"/>
      <point x="228" y="488" type="curve" smooth="yes"/>
      <point x="260" y="488"/>
      <point x="289" y="476"/>
      <point x="289" y="456" type="curve" smooth="yes"/>
      <point x="289" y="436"/>
      <point x="228" y="391"/>
      <point x="171" y="352" type="curve" smooth="yes"/>
      <point x="67" y="281"/>
      <point x="26" y="204"/>
      <point x="26" y="148" type="curve" smooth="yes"/>
      <point x="26" y="87"/>
      <point x="72" y="-1"/>
    </contour>
  </outline>
</glyph>
<glyph name="question" format="2">
  <advance width="486"/>
  <unicode hex="003F"/>
  <outline>
    <contour>
      <point x="187" y="176.0" type="curve" smooth="yes"/>
      <point x="209" y="176"/>
      <point x="231" y="193"/>
      <point x="235" y="225" type="curve" smooth="yes"/>
      <point x="240" y="268" type="line"/>
      <point x="370" y="281"/>
      <point x="424" y="367"/>
      <point x="435" y="464" type="curve" smooth="yes"/>
      <point x="448" y="572"/>
      <point x="377" y="650"/>
      <point x="271" y="650" type="curve" smooth="yes"/>
      <point x="173" y="650"/>
      <point x="92" y="585"/>
      <point x="82" y="493" type="curve" smooth="yes"/>
      <point x="77" y="458"/>
      <point x="99" y="434"/>
      <point x="130" y="434" type="curve" smooth="yes"/>
      <point x="149" y="434"/>
      <point x="174" y="443"/>
      <point x="177" y="476" type="curve" smooth="yes"/>
      <point x="181" y="527"/>
      <point x="219" y="561"/>
      <point x="265" y="561" type="curve" smooth="yes"/>
      <point x="313" y="561"/>
      <point x="346" y="523"/>
      <point x="340" y="469" type="curve" smooth="yes"/>
      <point x="339" y="455"/>
      <point x="329" y="355"/>
      <point x="194" y="356" type="curve"/>
      <point x="169.0" y="356.0"/>
      <point x="152" y="342"/>
      <point x="149" y="313" type="curve" smooth="yes"/>
      <point x="140" y="233" type="line" smooth="yes"/>
      <point x="137" y="207"/>
      <point x="153" y="176"/>
    </contour>
    <contour>
      <point x="163" y="-1" type="curve" smooth="yes"/>
      <point x="195" y="-1"/>
      <point x="223" y="27"/>
      <point x="224" y="57" type="curve" smooth="yes"/>
      <point x="225" y="88"/>
      <point x="196" y="116"/>
      <point x="164" y="116" type="curve" smooth="yes"/>
      <point x="131" y="116"/>
      <point x="107" y="86"/>
      <point x="107" y="57" type="curve" smooth="yes"/>
      <point x="107" y="29"/>
      <point x="130" y="-1"/>
    </contour>
  </outline>
</glyph>
<glyph name="A" format="2">
  <advance width="470"/>
  <unicode hex="0041"/>
  <outline>
    <contour>
      <point x="14" y="2" type="curve" smooth="yes"/>
      <point x="37" y="-7"/>
      <point x="68" y="3"/>
      <point x="81" y="33" type="curve" smooth="yes"/>
      <point x="286" y="521" type="line"/>
      <point x="270" y="523" type="line"/>
      <point x="330" y="49" type="line" smooth="yes"/>
      <point x="335" y="12"/>
      <point x="355" y="-5"/>
      <point x="387" y="0" type="curve" smooth="yes"/>
      <point x="415" y="4"/>
      <point x="428" y="26"/>
      <point x="423" y="61" type="curve" smooth="yes"/>
      <point x="336" y="619" type="line" smooth="yes"/>
      <point x="333" y="639"/>
      <point x="316" y="650"/>
      <point x="288" y="650" type="curve" smooth="yes"/>
      <point x="257" y="650"/>
      <point x="248" y="639"/>
      <point x="238" y="616" type="curve" smooth="yes"/>
      <point x="-10" y="66" type="line" smooth="yes"/>
      <point x="-23" y="37"/>
      <point x="-9" y="11"/>
    </contour>
    <contour>
      <point x="129" y="247" type="line"/>
      <point x="342" y="247" type="line"/>
      <point x="331" y="327" type="line"/>
      <point x="163" y="327" type="line"/>
    </contour>
  </outline>
</glyph>
<glyph name="D" format="2">
  <advance width="545"/>
  <unicode hex="0044"/>
  <outline>
    <contour>
      <point x="83" y="0" type="curve" smooth="yes"/>
      <point x="159" y="0" type="line" smooth="yes"/>
      <point x="352" y="0"/>
      <point x="478" y="129"/>
      <point x="500" y="336" type="curve" smooth="yes"/>
      <point x="519" y="523"/>
      <point x="405" y="650"/>
      <point x="213" y="650" type="curve" smooth="yes"/>
      <point x="142" y="650" type="line" smooth="yes"/>
      <point x="112" y="650"/>
      <point x="97" y="636"/>
      <point x="94" y="609" type="curve" smooth="yes"/>
      <point x="35" y="49" type="line" smooth="yes"/>
      <point x="32" y="22"/>
      <point x="53" y="0"/>
    </contour>
    <contour>
      <point x="140" y="89" type="line"/>
      <point x="190" y="562" type="line"/>
      <point x="202" y="562" type="line" smooth="yes"/>
      <point x="336" y="562"/>
      <point x="417" y="489"/>
      <point x="403" y="339" type="curve" smooth="yes"/>
      <point x="388" y="173"/>
      <point x="296" y="89"/>
      <point x="153" y="89" type="curve" smooth="yes"/>
    </contour>
  </outline>
</glyph>
<glyph name="F" format="2">
  <advance width="522"/>
  <unicode hex="0046"/>
  <outline>
    <contour>
      <point x="75" y="0" type="curve" smooth="yes"/>
      <point x="116" y="0"/>
      <point x="133" y="21"/>
      <point x="136" y="51" type="curve" smooth="yes"/>
      <point x="190" y="555" type="line"/>
      <point x="454" y="555" type="line" smooth="yes"/>
      <point x="484" y="555"/>
      <point x="505" y="575"/>
      <point x="505" y="604" type="curve" smooth="yes"/>
      <point x="505" y="632"/>
      <point x="484" y="650"/>
      <point x="453" y="650" type="curve" smooth="yes"/>
      <point x="144" y="650" type="line" smooth="yes"/>
      <point x="113.0" y="650.0"/>
      <point x="98" y="638"/>
      <point x="95" y="610" type="curve" smooth="yes"/>
      <point x="36" y="54" type="line" smooth="yes"/>
      <point x="33" y="27"/>
      <point x="47" y="0"/>
    </contour>
    <contour>
      <point x="110" y="278" type="line"/>
      <point x="400" y="278" type="line" smooth="yes"/>
      <point x="432" y="278"/>
      <point x="446" y="297"/>
      <point x="446" y="321" type="curve" smooth="yes"/>
      <point x="446" y="347"/>
      <point x="425" y="363"/>
      <point x="395" y="363" type="curve" smooth="yes"/>
      <point x="119" y="363" type="line"/>
    </contour>
  </outline>
</glyph>
<glyph name="G" format="2">
  <advance width="533"/>
  <unicode hex="0047"/>
  <outline>
    <contour>
      <point x="190" y="-5" type="curve" smooth="yes"/>
      <point x="303" y="-5"/>
      <point x="375" y="161"/>
      <point x="436" y="285" type="curve"/>
      <point x="438" y="370" type="line"/>
      <point x="400" y="370"/>
      <point x="396" y="361"/>
      <point x="344" y="271" type="curve" smooth="yes"/>
      <point x="313" y="217"/>
      <point x="235" y="85"/>
      <point x="196" y="85" type="curve" smooth="yes"/>
      <point x="146" y="85"/>
      <point x="127" y="171"/>
      <point x="146" y="329" type="curve" smooth="yes"/>
      <point x="162" y="462"/>
      <point x="197" y="565"/>
      <point x="311" y="565" type="curve" smooth="yes"/>
      <point x="367" y="565"/>
      <point x="393" y="552"/>
      <point x="408" y="521" type="curve" smooth="yes"/>
      <point x="423" y="490"/>
      <point x="438" y="477"/>
      <point x="471" y="486" type="curve" smooth="yes"/>
      <point x="498" y="493"/>
      <point x="502" y="520"/>
      <point x="494" y="545" type="curve" smooth="yes"/>
      <point x="472" y="614"/>
      <point x="402" y="655"/>
      <point x="311" y="655" type="curve" smooth="yes"/>
      <point x="151" y="655"/>
      <point x="75" y="531"/>
      <point x="47" y="342" type="curve" smooth="yes"/>
      <point x="17" y="139"/>
      <point x="46" y="-5"/>
    </contour>
    <contour>
      <point x="409" y="0" type="curve" smooth="yes"/>
      <point x="444" y="0"/>
      <point x="454" y="18"/>
      <point x="457" y="42" type="curve" smooth="yes"/>
      <point x="487" y="320" type="line" smooth="yes"/>
      <point x="490" y="351"/>
      <point x="469" y="370"/>
      <point x="438" y="370" type="curve"/>
      <point x="381" y="276" type="line"/>
      <point x="357" y="49" type="line" smooth="yes"/>
      <point x="354" y="18"/>
      <point x="375" y="0"/>
    </contour>
  </outline>
</glyph>
<glyph name="L" format="2">
  <advance width="486"/>
  <unicode hex="004C"/>
  <outline>
    <contour>
      <point x="78" y="0" type="curve"/>
      <point x="394" y="0" type="line" smooth="yes"/>
      <point x="424" y="0"/>
      <point x="441" y="22"/>
      <point x="441" y="46" type="curve" smooth="yes"/>
      <point x="441" y="70"/>
      <point x="418" y="91"/>
      <point x="388" y="91" type="curve" smooth="yes"/>
      <point x="139" y="91" type="line"/>
      <point x="193" y="597" type="line" smooth="yes"/>
      <point x="197" y="639"/>
      <point x="172" y="650"/>
      <point x="147" y="650" type="curve" smooth="yes"/>
      <point x="118" y="650"/>
      <point x="97" y="637"/>
      <point x="94" y="609" type="curve" smooth="yes"/>
      <point x="35" y="49" type="line" smooth="yes"/>
      <point x="32" y="21"/>
      <point x="48" y="0"/>
    </contour>
  </outline>
</glyph>
<glyph name="M" format="2">
  <advance width="824"/>
  <unicode hex="004D"/>
  <outline>
    <contour>
      <point x="32" y="0" type="curve" smooth="yes"/>
      <point x="50" y="0"/>
      <point x="79" y="9"/>
      <point x="90" y="33" type="curve" smooth="yes"/>
      <point x="292" y="459" type="line"/>
      <point x="285" y="462" type="line"/>
      <point x="331" y="40" type="line" smooth="yes"/>
      <point x="333" y="18"/>
      <point x="350" y="0"/>
      <point x="380" y="0" type="curve"/>
      <point x="420" y="0"/>
      <point x="430" y="19"/>
      <point x="436" y="31" type="curve" smooth="yes"/>
      <point x="642" y="459" type="line"/>
      <point x="636" y="462" type="line"/>
      <point x="678" y="40" type="line" smooth="yes"/>
      <point x="680" y="19"/>
      <point x="701" y="0"/>
      <point x="732" y="0" type="curve" smooth="yes"/>
      <point x="761" y="0"/>
      <point x="781" y="20"/>
      <point x="778" y="46" type="curve" smooth="yes"/>
      <point x="717" y="606" type="line" smooth="yes"/>
      <point x="714" y="635"/>
      <point x="709" y="650"/>
      <point x="675" y="650" type="curve"/>
      <point x="644" y="650"/>
      <point x="626" y="638"/>
      <point x="615" y="616" type="curve" smooth="yes"/>
      <point x="405" y="183" type="line"/>
      <point x="412" y="180" type="line"/>
      <point x="366" y="606" type="line" smooth="yes"/>
      <point x="363" y="635"/>
      <point x="352" y="650"/>
      <point x="312" y="650" type="curve"/>
      <point x="284" y="650"/>
      <point x="274" y="638"/>
      <point x="264" y="617" type="curve" smooth="yes"/>
      <point x="-7" y="64" type="line" smooth="yes"/>
      <point x="-26" y="23"/>
      <point x="5" y="0"/>
    </contour>
  </outline>
</glyph>
<glyph name="N" format="2">
  <advance width="566"/>
  <unicode hex="004E"/>
  <outline>
    <contour>
      <point x="82" y="0" type="curve" smooth="yes"/>
      <point x="115" y="0"/>
      <point x="134" y="19"/>
      <point x="136" y="42" type="curve" smooth="yes"/>
      <point x="182" y="489" type="line"/>
      <point x="158" y="485" type="line"/>
      <point x="375" y="28" type="line" smooth="yes"/>
      <point x="384" y="10"/>
      <point x="400" y="0"/>
      <point x="425" y="0" type="curve"/>
      <point x="459" y="0"/>
      <point x="468" y="19"/>
      <point x="470" y="40" type="curve" smooth="yes"/>
      <point x="528" y="597" type="line" smooth="yes"/>
      <point x="531" y="629"/>
      <point x="514" y="653"/>
      <point x="481" y="653" type="curve" smooth="yes"/>
      <point x="453" y="653"/>
      <point x="432" y="637"/>
      <point x="429" y="609" type="curve" smooth="yes"/>
      <point x="384" y="175" type="line"/>
      <point x="408" y="179" type="line"/>
      <point x="199" y="621" type="line" smooth="yes"/>
      <point x="189" y="642"/>
      <point x="172" y="650"/>
      <point x="149" y="650" type="curve" smooth="yes"/>
      <point x="117.0" y="650.0"/>
      <point x="97" y="636"/>
      <point x="94" y="609" type="curve" smooth="yes"/>
      <point x="36" y="49" type="line" smooth="yes"/>
      <point x="33" y="21"/>
      <point x="53" y="0"/>
    </contour>
  </outline>
</glyph>
<glyph name="O" format="2">
  <advance width="538"/>
  <unicode hex="004F"/>
  <outline>
    <contour>
      <point x="235" y="-5" type="curve"/>
      <point x="375" y="-5"/>
      <point x="472" y="131"/>
      <point x="494" y="338" type="curve" smooth="yes"/>
      <point x="513" y="525"/>
      <point x="431" y="655"/>
      <point x="302" y="655" type="curve"/>
      <point x="162" y="655"/>
      <point x="65" y="519"/>
      <point x="43" y="312" type="curve" smooth="yes"/>
      <point x="24" y="125"/>
      <point x="106" y="-5"/>
    </contour>
    <contour>
      <point x="243" y="85" type="curve"/>
      <point x="171" y="85"/>
      <point x="129" y="176"/>
      <point x="142" y="312" type="curve" smooth="yes"/>
      <point x="156" y="463"/>
      <point x="214" y="565"/>
      <point x="294" y="565" type="curve"/>
      <point x="366" y="565"/>
      <point x="408" y="474"/>
      <point x="395" y="338" type="curve" smooth="yes"/>
      <point x="381" y="187"/>
      <point x="323" y="85"/>
    </contour>
  </outline>
</glyph>
<glyph name="R" format="2">
  <advance width="526"/>
  <unicode hex="0052"/>
  <outline>
    <contour>
      <point x="78" y="0" type="curve" smooth="yes"/>
      <point x="113" y="0"/>
      <point x="131" y="18"/>
      <point x="135" y="53" type="curve" smooth="yes"/>
      <point x="189" y="563" type="line"/>
      <point x="350" y="562"/>
      <point x="404" y="551"/>
      <point x="396" y="479" type="curve" smooth="yes"/>
      <point x="388" y="413"/>
      <point x="288" y="351"/>
      <point x="119" y="351" type="curve"/>
      <point x="110" y="271" type="line"/>
      <point x="318" y="271"/>
      <point x="486" y="335"/>
      <point x="496" y="477" type="curve" smooth="yes"/>
      <point x="507" y="622"/>
      <point x="376" y="650"/>
      <point x="147" y="650" type="curve" smooth="yes"/>
      <point x="116.0" y="650.0"/>
      <point x="97" y="637"/>
      <point x="94" y="609" type="curve" smooth="yes"/>
      <point x="36" y="60" type="line" smooth="yes"/>
      <point x="33" y="27"/>
      <point x="45" y="0"/>
    </contour>
    <contour>
      <point x="394" y="0" type="curve" smooth="yes"/>
      <point x="413" y="0"/>
      <point x="432" y="9"/>
      <point x="440" y="26" type="curve" smooth="yes"/>
      <point x="446" y="39"/>
      <point x="446" y="58"/>
      <point x="436" y="71" type="curve" smooth="yes"/>
      <point x="257" y="291" type="line"/>
      <point x="139" y="285" type="line"/>
      <point x="347" y="23" type="line" smooth="yes"/>
      <point x="363" y="2"/>
      <point x="381" y="0"/>
    </contour>
  </outline>
</glyph>
<glyph name="S" format="2">
  <advance width="515"/>
  <unicode hex="0053"/>
  <outline>
    <contour>
      <point x="225" y="-5" type="curve" smooth="yes"/>
      <point x="351" y="-5"/>
      <point x="436" y="61"/>
      <point x="447" y="168" type="curve" smooth="yes"/>
      <point x="460" y="285"/>
      <point x="384" y="350"/>
      <point x="316" y="388" type="curve" smooth="yes"/>
      <point x="255" y="422"/>
      <point x="184" y="467"/>
      <point x="189" y="508" type="curve" smooth="yes"/>
      <point x="194" y="546"/>
      <point x="235" y="566"/>
      <point x="296" y="566" type="curve" smooth="yes"/>
      <point x="347" y="566"/>
      <point x="382" y="542"/>
      <point x="397" y="515" type="curve" smooth="yes"/>
      <point x="412" y="488"/>
      <point x="440" y="481"/>
      <point x="467" y="494" type="curve" smooth="yes"/>
      <point x="490" y="506"/>
      <point x="496" y="528"/>
      <point x="486" y="551" type="curve" smooth="yes"/>
      <point x="456" y="617"/>
      <point x="402" y="655"/>
      <point x="311" y="655" type="curve" smooth="yes"/>
      <point x="173" y="655"/>
      <point x="96" y="604"/>
      <point x="86" y="511" type="curve" smooth="yes"/>
      <point x="76" y="415"/>
      <point x="186" y="346"/>
      <point x="251" y="311" type="curve" smooth="yes"/>
      <point x="322" y="273"/>
      <point x="357" y="227"/>
      <point x="352" y="172" type="curve" smooth="yes"/>
      <point x="347" y="122"/>
      <point x="298" y="91"/>
      <point x="224" y="91" type="curve" smooth="yes"/>
      <point x="162" y="91"/>
      <point x="132" y="130"/>
      <point x="126" y="151" type="curve" smooth="yes"/>
      <point x="117" y="183"/>
      <point x="87" y="193"/>
      <point x="62" y="185" type="curve" smooth="yes"/>
      <point x="40" y="178"/>
      <point x="15" y="153"/>
      <point x="27" y="113" type="curve" smooth="yes"/>
      <point x="42" y="61"/>
      <point x="113" y="-5"/>
    </contour>
  </outline>
</glyph>
<glyph name="W" format="2">
  <advance width="794"/>
  <unicode hex="0057"/>
  <outline>
    <contour>
      <point x="187" y="0" type="curve" smooth="yes"/>
      <point x="218" y="0"/>
      <point x="241" y="14"/>
      <point x="252" y="43" type="curve" smooth="yes"/>
      <point x="388" y="412" type="line"/>
      <point x="414" y="493" type="line"/>
      <point x="410" y="494" type="line"/>
      <point x="418" y="412" type="line"/>
      <point x="471" y="32" type="line" smooth="yes"/>
      <point x="473" y="15"/>
      <point x="492" y="0"/>
      <point x="522" y="0" type="curve" smooth="yes"/>
      <point x="553" y="0"/>
      <point x="566" y="12"/>
      <point x="575" y="33" type="curve" smooth="yes"/>
      <point x="804" y="591" type="line" smooth="yes"/>
      <point x="814" y="615"/>
      <point x="799" y="650"/>
      <point x="761" y="650" type="curve" smooth="yes"/>
      <point x="729" y="650"/>
      <point x="712" y="630"/>
      <point x="706" y="616" type="curve" smooth="yes"/>
      <point x="572" y="276" type="line"/>
      <point x="529" y="165" type="line"/>
      <point x="540" y="163" type="line"/>
      <point x="526" y="276" type="line"/>
      <point x="482" y="610" type="line" smooth="yes"/>
      <point x="479" y="635"/>
      <point x="458" y="650"/>
      <point x="423" y="650" type="curve" smooth="yes"/>
      <point x="391" y="650"/>
      <point x="376" y="634"/>
      <point x="368" y="612" type="curve" smooth="yes"/>
      <point x="243" y="277" type="line"/>
      <point x="197" y="151" type="line"/>
      <point x="207" y="149" type="line"/>
      <point x="191" y="280" type="line"/>
      <point x="145" y="610" type="line" smooth="yes"/>
      <point x="142" y="633"/>
      <point x="121" y="650"/>
      <point x="89" y="650" type="curve" smooth="yes"/>
      <point x="60" y="650"/>
      <point x="40" y="634"/>
      <point x="45" y="604" type="curve" smooth="yes"/>
      <point x="130" y="44" type="line" smooth="yes"/>
      <point x="134" y="15"/>
      <point x="154" y="0"/>
    </contour>
  </outline>
</glyph>
<glyph name="Y" format="2">
  <advance width="479"/>
  <unicode hex="0059"/>
  <outline>
    <contour>
      <point x="74" y="646" type="curve" smooth="yes"/>
      <point x="43" y="636"/>
      <point x="38" y="608"/>
      <point x="49" y="584" type="curve" smooth="yes"/>
      <point x="217" y="223" type="line"/>
      <point x="276" y="314" type="line"/>
      <point x="142" y="621" type="line" smooth="yes"/>
      <point x="132" y="644"/>
      <point x="105" y="657"/>
    </contour>
    <contour>
      <point x="77" y="9" type="curve" smooth="yes"/>
      <point x="97" y="-7"/>
      <point x="139" y="-2"/>
      <point x="153" y="22" type="curve" smooth="yes"/>
      <point x="485" y="578" type="line" smooth="yes"/>
      <point x="499" y="602"/>
      <point x="492" y="630"/>
      <point x="466" y="645" type="curve" smooth="yes"/>
      <point x="445" y="656"/>
      <point x="412" y="650"/>
      <point x="396" y="624" type="curve" smooth="yes"/>
      <point x="66" y="75" type="line" smooth="yes"/>
      <point x="53" y="54"/>
      <point x="58" y="25"/>
    </contour>
  </outline>
</glyph>
<glyph name="backslash" format="2">
  <advance width="393"/>
  <unicode hex="005C"/>
  <outline>
    <contour>
      <point x="97" y="650" type="curve" smooth="yes"/>
      <point x="65" y="650"/>
      <point x="35" y="625"/>
      <point x="47" y="590" type="curve" smooth="yes"/>
      <point x="263" y="-16" type="line" smooth="yes"/>
      <point x="272" y="-41"/>
      <point x="294" y="-52"/>
      <point x="314" y="-52" type="curve" smooth="yes"/>
      <point x="344" y="-52"/>
      <point x="376" y="-26"/>
      <point x="363" y="10" type="curve" smooth="yes"/>
      <point x="146" y="618" type="line" smooth="yes"/>
      <point x="138" y="640"/>
      <point x="116" y="650"/>
    </contour>
  </outline>
</glyph>
<glyph name="asciicircum" format="2">
  <advance width="450"/>
  <unicode hex="005E"/>
  <outline>
    <contour>
      <point x="130" y="284" type="curve" smooth="yes"/>
      <point x="252" y="388" type="line"/>
      <point x="222" y="390" type="line"/>
      <point x="312" y="284" type="line" smooth="yes"/>
      <point x="330" y="262"/>
      <point x="354" y="267"/>
      <point x="368" y="279" type="curve" smooth="yes"/>
      <point x="383" y="292"/>
      <point x="388" y="316"/>
      <point x="372" y="335" type="curve" smooth="yes"/>
      <point x="272" y="454" type="line" smooth="yes"/>
      <point x="259" y="469"/>
      <point x="236" y="475"/>
      <point x="213" y="456" type="curve" smooth="yes"/>
      <point x="77" y="342" type="line" smooth="yes"/>
      <point x="57" y="325"/>
      <point x="60" y="302"/>
      <point x="73" y="287" type="curve"/>
      <point x="87" y="273"/>
      <point x="106" y="264"/>
    </contour>
  </outline>
</glyph>
<glyph name="grave" format="2">
  <advance width="500"/>
  <unicode hex="0060"/>
  <outline>
    <contour>
      <point x="253" y="468" type="line" smooth="yes"/>
      <point x="269.0" y="442.0"/>
      <point x="292.0" y="448"/>
      <point x="305" y="455" type="curve" smooth="yes"/>
      <point x="317.0" y="461.0"/>
      <point x="343.0" y="479.0"/>
      <point x="329" y="506" type="curve" smooth="yes"/>
      <point x="280" y="602" type="line" smooth="yes"/>
      <point x="271.0" y="620.0"/>
      <point x="255" y="628.0"/>
      <point x="240" y="628" type="curve" smooth="yes"/>
      <point x="214.0" y="628.0"/>
      <point x="174.0" y="598"/>
      <point x="196" y="562" type="curve" smooth="yes"/>
    </contour>
  </outline>
</glyph>
<glyph name="e" format="2">
  <advance width="356"/>
  <unicode hex="0065"/>
  <outline>
    <contour>
      <point x="145" y="-4" type="curve" smooth="yes"/>
      <point x="207" y="-4"/>
      <point x="263" y="27"/>
      <point x="291" y="77" type="curve" smooth="yes"/>
      <point x="302" y="99"/>
      <point x="294" y="126"/>
      <point x="272" y="139" type="curve" smooth="yes"/>
      <point x="246" y="154"/>
      <point x="225" y="145"/>
      <point x="213" y="122" type="curve" smooth="yes"/>
      <point x="201" y="100"/>
      <point x="177" y="86"/>
      <point x="153" y="86.0" type="curve" smooth="yes"/>
      <point x="120" y="86"/>
      <point x="104" y="125"/>
      <point x="110" y="176" type="curve" smooth="yes"/>
      <point x="117" y="242"/>
      <point x="156" y="271"/>
      <point x="187" y="271" type="curve" smooth="yes"/>
      <point x="195" y="271"/>
      <point x="197" y="268"/>
      <point x="197" y="263" type="curve" smooth="yes"/>
      <point x="197" y="247"/>
      <point x="148" y="204"/>
      <point x="63" y="155" type="curve"/>
      <point x="69" y="74" type="line"/>
      <point x="239" y="185"/>
      <point x="289" y="230"/>
      <point x="289" y="277" type="curve" smooth="yes"/>
      <point x="289" y="323"/>
      <point x="255" y="360"/>
      <point x="194" y="360" type="curve" smooth="yes"/>
      <point x="115" y="360"/>
      <point x="31" y="300"/>
      <point x="19" y="185" type="curve" smooth="yes"/>
      <point x="10" y="97"/>
      <point x="47" y="-4"/>
    </contour>
  </outline>
</glyph>
<glyph name="f" format="2">
  <advance width="266"/>
  <unicode hex="0066"/>
  <outline>
    <contour>
      <point x="89" y="-1" type="curve" smooth="yes"/>
      <point x="121" y="-1"/>
      <point x="136" y="25"/>
      <point x="138" y="47" type="curve" smooth="yes"/>
      <point x="185" y="494" type="line" smooth="yes"/>
      <point x="190" y="538"/>
      <point x="199" y="560"/>
      <point x="213" y="560" type="curve" smooth="yes"/>
      <point x="227" y="560"/>
      <point x="236" y="557"/>
      <point x="244" y="544" type="curve" smooth="yes"/>
      <point x="255" y="526"/>
      <point x="276" y="514"/>
      <point x="300" y="527" type="curve" smooth="yes"/>
      <point x="321" y="540"/>
      <point x="333" y="570"/>
      <point x="319" y="593" type="curve" smooth="yes"/>
      <point x="297" y="627"/>
      <point x="261" y="650"/>
      <point x="214" y="650" type="curve" smooth="yes"/>
      <point x="148" y="650"/>
      <point x="95" y="597"/>
      <point x="86" y="508" type="curve" smooth="yes"/>
      <point x="38" y="54" type="line" smooth="yes"/>
      <point x="35" y="27"/>
      <point x="57" y="-1"/>
    </contour>
    <contour>
      <point x="43" y="260" type="curve" smooth="yes"/>
      <point x="208" y="260" type="line" smooth="yes"/>
      <point x="238" y="260"/>
      <point x="256" y="277"/>
      <point x="256" y="305" type="curve" smooth="yes"/>
      <point x="256" y="333"/>
      <point x="238" y="350"/>
      <point x="208" y="350" type="curve" smooth="yes"/>
      <point x="43" y="350" type="line" smooth="yes"/>
      <point x="11" y="350"/>
      <point x="-8" y="333"/>
      <point x="-8" y="305" type="curve" smooth="yes"/>
      <point x="-8" y="277"/>
      <point x="11" y="260"/>
    </contour>
  </outline>
</glyph>
<glyph name="l" format="2">
  <advance width="212"/>
  <unicode hex="006C"/>
  <outline>
    <contour>
      <point x="72" y="0" type="curve" smooth="yes"/>
      <point x="101" y="0"/>
      <point x="122" y="18"/>
      <point x="126" y="51" type="curve" smooth="yes"/>
      <point x="185" y="597" type="line" smooth="yes"/>
      <point x="188" y="625"/>
      <point x="173" y="650"/>
      <point x="138" y="650" type="curve" smooth="yes"/>
      <point x="108" y="650"/>
      <point x="88" y="629"/>
      <point x="85" y="602" type="curve" smooth="yes"/>
      <point x="26" y="57" type="line" smooth="yes"/>
      <point x="22" y="21"/>
      <point x="39" y="0"/>
    </contour>
  </outline>
</glyph>
<glyph name="n" format="2">
  <advance width="387"/>
  <unicode hex="006E"/>
  <outline>
    <contour>
      <point x="60" y="0" type="curve" smooth="yes"/>
      <point x="102" y="0"/>
      <point x="110" y="24"/>
      <point x="112" y="45" type="curve" smooth="yes"/>
      <point x="142" y="302" type="line" smooth="yes"/>
      <point x="145" y="331"/>
      <point x="131" y="350"/>
      <point x="99" y="350" type="curve" smooth="yes"/>
      <point x="68" y="350"/>
      <point x="47" y="337"/>
      <point x="44" y="308" type="curve" smooth="yes"/>
      <point x="15" y="52" type="line" smooth="yes"/>
      <point x="12" y="24"/>
      <point x="24" y="0"/>
    </contour>
    <contour>
      <point x="258" y="0" type="curve" smooth="yes"/>
      <point x="293" y="0"/>
      <point x="305" y="24"/>
      <point x="308" y="46" type="curve" smooth="yes"/>
      <point x="331" y="229" type="line" smooth="yes"/>
      <point x="342" y="310"/>
      <point x="307" y="360"/>
      <point x="248" y="360" type="curve" smooth="yes"/>
      <point x="210" y="360"/>
      <point x="171" y="334"/>
      <point x="131" y="284" type="curve"/>
      <point x="118" y="166" type="line"/>
      <point x="168" y="247"/>
      <point x="208" y="270"/>
      <point x="221" y="270" type="curve" smooth="yes"/>
      <point x="232" y="270"/>
      <point x="236" y="258"/>
      <point x="234" y="235" type="curve" smooth="yes"/>
      <point x="212" y="52" type="line" smooth="yes"/>
      <point x="209" y="24"/>
      <point x="220" y="0"/>
    </contour>
  </outline>
</glyph>
<glyph name="q" format="2">
  <advance width="382"/>
  <unicode hex="0071"/>
  <outline>
    <contour>
      <point x="126" y="-1.0" type="curve" smooth="yes"/>
      <point x="192" y="-1"/>
      <point x="216" y="75"/>
      <point x="239" y="114" type="curve"/>
      <point x="228" y="262" type="line"/>
      <point x="207" y="130"/>
      <point x="178.0" y="89.0"/>
      <point x="145" y="89" type="curve" smooth="yes"/>
      <point x="120" y="89"/>
      <point x="110" y="119"/>
      <point x="116" y="170" type="curve" smooth="yes"/>
      <point x="123" y="236"/>
      <point x="145" y="270"/>
      <point x="176" y="270" type="curve" smooth="yes"/>
      <point x="198" y="270"/>
      <point x="230" y="259"/>
      <point x="272" y="198" type="curve"/>
      <point x="284" y="303" type="line"/>
      <point x="259" y="337"/>
      <point x="211" y="360"/>
      <point x="177" y="360" type="curve" smooth="yes"/>
      <point x="98" y="360"/>
      <point x="31" y="294"/>
      <point x="19" y="179" type="curve" smooth="yes"/>
      <point x="10" y="91"/>
      <point x="40" y="-1"/>
    </contour>
    <contour>
      <point x="221" y="-300" type="curve" smooth="yes"/>
      <point x="235" y="-300"/>
      <point x="247" y="-295"/>
      <point x="256" y="-288" type="curve" smooth="yes"/>
      <point x="350" y="-209" type="line" smooth="yes"/>
      <point x="365" y="-197"/>
      <point x="376" y="-183"/>
      <point x="378" y="-170" type="curve" smooth="yes"/>
      <point x="382" y="-145"/>
      <point x="362" y="-126"/>
      <point x="337" y="-125" type="curve" smooth="yes"/>
      <point x="324" y="-124"/>
      <point x="308" y="-129"/>
      <point x="292" y="-142" type="curve" smooth="yes"/>
      <point x="285" y="-148" type="line"/>
      <point x="333" y="293" type="line" smooth="yes"/>
      <point x="337" y="329"/>
      <point x="320" y="350"/>
      <point x="287" y="350" type="curve" smooth="yes"/>
      <point x="258" y="350"/>
      <point x="236" y="326"/>
      <point x="232" y="293" type="curve" smooth="yes"/>
      <point x="174" y="-247" type="line" smooth="yes"/>
      <point x="171" y="-275"/>
      <point x="186" y="-300"/>
    </contour>
  </outline>
</glyph>
<glyph name="s" format="2">
  <advance width="324"/>
  <unicode hex="0073"/>
  <outline>
    <contour>
      <point x="148" y="-1" type="curve" smooth="yes"/>
      <point x="200" y="-1"/>
      <point x="264" y="26"/>
      <point x="264.0" y="103" type="curve" smooth="yes"/>
      <point x="264" y="160"/>
      <point x="227" y="189"/>
      <point x="181" y="215" type="curve" smooth="yes"/>
      <point x="153" y="231"/>
      <point x="125" y="246"/>
      <point x="125.0" y="257" type="curve" smooth="yes"/>
      <point x="125.0" y="265"/>
      <point x="134" y="270"/>
      <point x="148" y="270" type="curve" smooth="yes"/>
      <point x="165" y="270"/>
      <point x="186" y="265"/>
      <point x="202" y="254" type="curve" smooth="yes"/>
      <point x="232" y="233"/>
      <point x="259" y="235"/>
      <point x="274" y="257" type="curve" smooth="yes"/>
      <point x="291" y="281"/>
      <point x="280" y="310"/>
      <point x="246" y="333" type="curve" smooth="yes"/>
      <point x="213" y="354"/>
      <point x="179" y="360"/>
      <point x="152" y="360" type="curve" smooth="yes"/>
      <point x="77" y="360"/>
      <point x="31" y="321"/>
      <point x="31" y="258" type="curve" smooth="yes"/>
      <point x="31" y="213"/>
      <point x="53" y="180"/>
      <point x="124" y="139" type="curve" smooth="yes"/>
      <point x="167" y="114"/>
      <point x="168" y="108"/>
      <point x="168" y="101" type="curve" smooth="yes"/>
      <point x="168" y="93"/>
      <point x="160" y="89"/>
      <point x="150" y="89" type="curve" smooth="yes"/>
      <point x="125" y="89"/>
      <point x="96" y="104"/>
      <point x="85" y="113" type="curve" smooth="yes"/>
      <point x="61" y="132"/>
      <point x="35" y="131"/>
      <point x="17" y="105" type="curve" smooth="yes"/>
      <point x="-2" y="78"/>
      <point x="13" y="52"/>
      <point x="39" y="33" type="curve" smooth="yes"/>
      <point x="58" y="19"/>
      <point x="103" y="-1"/>
    </contour>
  </outline>
</glyph>
<glyph name="t" format="2">
  <advance width="308"/>
  <unicode hex="0074"/>
  <guideline x="309" y="568" angle="0" identifier="20o9Kbz8wt"/>
  <outline>
    <contour>
      <point x="119" y="0" type="curve" smooth="yes"/>
      <point x="145" y="0"/>
      <point x="167" y="15"/>
      <point x="170" y="45" type="curve" smooth="yes"/>
      <point x="221" y="513" type="line" smooth="yes"/>
      <point x="225" y="546"/>
      <point x="200" y="568"/>
      <point x="171" y="568" type="curve" smooth="yes"/>
      <point x="148" y="568"/>
      <point x="123" y="553"/>
      <point x="120" y="525" type="curve" smooth="yes"/>
      <point x="69" y="51" type="line" smooth="yes"/>
      <point x="66" y="20"/>
      <point x="91" y="0"/>
    </contour>
    <contour>
      <point x="55" y="260" type="curve" smooth="yes"/>
      <point x="240" y="260" type="line" smooth="yes"/>
      <point x="270" y="260"/>
      <point x="288" y="277"/>
      <point x="288" y="305" type="curve" smooth="yes"/>
      <point x="288" y="333"/>
      <point x="270" y="350"/>
      <point x="240" y="350" type="curve" smooth="yes"/>
      <point x="55" y="350" type="line" smooth="yes"/>
      <point x="23" y="350"/>
      <point x="4" y="333"/>
      <point x="4" y="305" type="curve" smooth="yes"/>
      <point x="4" y="277"/>
      <point x="23" y="260"/>
    </contour>
  </outline>
</glyph>
<glyph name="v" format="2">
  <advance width="322"/>
  <unicode hex="0076"/>
  <outline>
    <contour>
      <point x="74" y="38" type="line" smooth="yes"/>
      <point x="81" y="11"/>
      <point x="101" y="-1"/>
      <point x="122" y="-1" type="curve" smooth="yes"/>
      <point x="138" y="-1"/>
      <point x="159" y="7"/>
      <point x="171" y="31" type="curve" smooth="yes"/>
      <point x="297" y="276" type="line" smooth="yes"/>
      <point x="316" y="313"/>
      <point x="292" y="350"/>
      <point x="258" y="350" type="curve" smooth="yes"/>
      <point x="238" y="350"/>
      <point x="218" y="341"/>
      <point x="210" y="323" type="curve" smooth="yes"/>
      <point x="123" y="126" type="line"/>
      <point x="142" y="120" type="line"/>
      <point x="107" y="313" type="line" smooth="yes"/>
      <point x="103" y="334"/>
      <point x="83" y="349"/>
      <point x="61" y="349" type="curve" smooth="yes"/>
      <point x="28" y="349"/>
      <point x="4" y="320"/>
      <point x="14" y="280" type="curve" smooth="yes"/>
    </contour>
  </outline>
</glyph>
<glyph name="w" format="2">
  <advance width="480"/>
  <unicode hex="0077"/>
  <outline>
    <contour>
      <point x="64" y="39" type="line" smooth="yes"/>
      <point x="69" y="14"/>
      <point x="89" y="-1"/>
      <point x="110" y="-1" type="curve" smooth="yes"/>
      <point x="135" y="-1"/>
      <point x="153" y="12"/>
      <point x="162" y="32" type="curve" smooth="yes"/>
      <point x="225" y="175" type="line"/>
      <point x="216" y="177" type="line"/>
      <point x="241" y="38" type="line" smooth="yes"/>
      <point x="245" y="14"/>
      <point x="264" y="-1"/>
      <point x="288" y="-1" type="curve" smooth="yes"/>
      <point x="309" y="-1"/>
      <point x="328" y="11"/>
      <point x="338" y="31" type="curve" smooth="yes"/>
      <point x="456" y="281" type="line" smooth="yes"/>
      <point x="474" y="319"/>
      <point x="451" y="351"/>
      <point x="417" y="355" type="curve" smooth="yes"/>
      <point x="397" y="357"/>
      <point x="377" y="346"/>
      <point x="369" y="328" type="curve" smooth="yes"/>
      <point x="300" y="168" type="line"/>
      <point x="309" y="166" type="line"/>
      <point x="283" y="319" type="line" smooth="yes"/>
      <point x="279" y="342"/>
      <point x="260" y="355"/>
      <point x="237" y="355" type="curve" smooth="yes"/>
      <point x="219" y="355"/>
      <point x="200" y="344"/>
      <point x="192" y="327" type="curve" smooth="yes"/>
      <point x="123" y="169" type="line"/>
      <point x="132" y="167" type="line"/>
      <point x="106" y="319" type="line" smooth="yes"/>
      <point x="102" y="340"/>
      <point x="83" y="355"/>
      <point x="61" y="355" type="curve" smooth="yes"/>
      <point x="28" y="355"/>
      <point x="6" y="326"/>
      <point x="14" y="286" type="curve" smooth="yes"/>
    </contour>
  </outline>
</glyph>
<glyph name="z" format="2">
  <advance width="350"/>
  <unicode hex="007A"/>
  <outline>
    <contour>
      <point x="59" y="0" type="curve" smooth="yes"/>
      <point x="226" y="0" type="line" smooth="yes"/>
      <point x="258" y="0"/>
      <point x="274" y="16"/>
      <point x="274" y="44" type="curve" smooth="yes"/>
      <point x="274" y="65"/>
      <point x="259" y="90"/>
      <point x="224" y="90" type="curve" smooth="yes"/>
      <point x="116" y="90" type="line"/>
      <point x="128" y="66" type="line"/>
      <point x="290" y="276" type="line" smooth="yes"/>
      <point x="318" y="311"/>
      <point x="291" y="350.0"/>
      <point x="250" y="350" type="curve" smooth="yes"/>
      <point x="81" y="350" type="line" smooth="yes"/>
      <point x="44" y="350"/>
      <point x="32" y="328"/>
      <point x="32" y="306" type="curve" smooth="yes"/>
      <point x="32" y="285"/>
      <point x="48" y="260"/>
      <point x="84" y="260" type="curve" smooth="yes"/>
      <point x="187" y="260" type="line"/>
      <point x="175" y="284" type="line"/>
      <point x="16" y="77" type="line" smooth="yes"/>
      <point x="-11" y="43"/>
      <point x="16" y="0.0"/>
    </contour>
  </outline>
</glyph>
<glyph name="bar" format="2">
  <advance width="253"/>
  <unicode hex="007C"/>
  <outline>
    <contour>
      <point x="66" y="-302" type="curve" smooth="yes"/>
      <point x="100" y="-302"/>
      <point x="111" y="-281"/>
      <point x="114" y="-260" type="curve"/>
      <point x="211" y="645" type="line" smooth="yes"/>
      <point x="214" y="681"/>
      <point x="190" y="702"/>
      <point x="162" y="702" type="curve" smooth="yes"/>
      <point x="140" y="702"/>
      <point x="115" y="685"/>
      <point x="112" y="657" type="curve" smooth="yes"/>
      <point x="14" y="-250" type="line" smooth="yes"/>
      <point x="10" y="-278"/>
      <point x="34" y="-302"/>
    </contour>
  </outline>
</glyph>
<glyph name="exclamdown" format="2">
  <advance width="296"/>
  <unicode hex="00A1"/>
  <outline>
    <contour>
      <point x="113" y="0" type="curve" smooth="yes"/>
      <point x="132" y="0"/>
      <point x="162" y="9"/>
      <point x="166" y="43" type="curve" smooth="yes"/>
      <point x="207" y="410" type="line" smooth="yes"/>
      <point x="212" y="457"/>
      <point x="192" y="474"/>
      <point x="161" y="474" type="curve" smooth="yes"/>
      <point x="142" y="474"/>
      <point x="112" y="465"/>
      <point x="108" y="430" type="curve" smooth="yes"/>
      <point x="67" y="63" type="line" smooth="yes"/>
      <point x="62" y="17"/>
      <point x="82" y="0"/>
    </contour>
    <contour>
      <point x="175" y="524" type="curve" smooth="yes"/>
      <point x="210" y="524"/>
      <point x="237" y="552"/>
      <point x="237" y="585" type="curve" smooth="yes"/>
      <point x="237" y="620"/>
      <point x="210" y="650"/>
      <point x="175" y="650" type="curve" smooth="yes"/>
      <point x="142" y="650"/>
      <point x="112" y="620"/>
      <point x="112" y="585" type="curve" smooth="yes"/>
      <point x="112" y="552"/>
      <point x="142" y="524"/>
    </contour>
  </outline>
</glyph>
<glyph name="brokenbar" format="2">
  <advance width="252"/>
  <unicode hex="00A6"/>
  <outline>
    <contour>
      <point x="153" y="111" type="line" smooth="yes"/>
      <point x="156" y="141"/>
      <point x="133" y="163"/>
      <point x="106" y="163" type="curve" smooth="yes"/>
      <point x="83" y="163"/>
      <point x="57" y="146"/>
      <point x="54" y="119" type="curve" smooth="yes"/>
      <point x="14" y="-248" type="line" smooth="yes"/>
      <point x="11" y="-276"/>
      <point x="34" y="-300"/>
      <point x="66" y="-300" type="curve" smooth="yes"/>
      <point x="100" y="-300"/>
      <point x="112" y="-279"/>
      <point x="114" y="-258" type="curve" smooth="yes"/>
    </contour>
    <contour>
      <point x="210" y="643" type="line" smooth="yes"/>
      <point x="214" y="679"/>
      <point x="189" y="700"/>
      <point x="161" y="700" type="curve" smooth="yes"/>
      <point x="139" y="700"/>
      <point x="114" y="683"/>
      <point x="111" y="655" type="curve" smooth="yes"/>
      <point x="72" y="290" type="line" smooth="yes"/>
      <point x="68" y="259"/>
      <point x="93" y="236"/>
      <point x="121" y="238" type="curve" smooth="yes"/>
      <point x="144" y="239"/>
      <point x="168" y="256"/>
      <point x="171" y="282" type="curve" smooth="yes"/>
    </contour>
  </outline>
</glyph>
<glyph name="periodcentered" format="2">
  <advance width="256"/>
  <unicode hex="00B7"/>
  <outline>
    <contour>
      <point x="115" y="149" type="curve" smooth="yes"/>
      <point x="148" y="149"/>
      <point x="178" y="179"/>
      <point x="178" y="214" type="curve" smooth="yes"/>
      <point x="178" y="247"/>
      <point x="148" y="275"/>
      <point x="115" y="275" type="curve" smooth="yes"/>
      <point x="80" y="275"/>
      <point x="53" y="247"/>
      <point x="53" y="214" type="curve" smooth="yes"/>
      <point x="53" y="179"/>
      <point x="80" y="149"/>
    </contour>
  </outline>
</glyph>
<glyph name="tilde" format="2">
  <advance width="500"/>
  <unicode hex="02DC"/>
  <outline>
    <contour>
      <point x="137" y="420.0" type="curve" smooth="yes"/>
      <point x="150.0" y="406.0"/>
      <point x="171.0" y="406"/>
      <point x="186" y="421.0" type="curve" smooth="yes"/>
      <point x="195" y="430.0"/>
      <point x="209.0" y="436.0"/>
      <point x="221" y="436.0" type="curve" smooth="yes"/>
      <point x="243.0" y="436.0"/>
      <point x="273.0" y="409.0"/>
      <point x="303" y="409.0" type="curve" smooth="yes"/>
      <point x="334.0" y="409.0"/>
      <point x="367.0" y="423.0"/>
      <point x="390" y="446.0" type="curve" smooth="yes"/>
      <point x="406.0" y="463.0"/>
      <point x="407.0" y="487.0"/>
      <point x="393" y="503.0" type="curve" smooth="yes"/>
      <point x="379.0" y="518.0"/>
      <point x="358.0" y="517.0"/>
      <point x="344" y="502.0" type="curve" smooth="yes"/>
      <point x="335.0" y="493.0"/>
      <point x="322.0" y="487.0"/>
      <point x="310" y="487.0" type="curve" smooth="yes"/>
      <point x="288.0" y="487.0"/>
      <point x="259" y="514.0"/>
      <point x="227" y="514.0" type="curve" smooth="yes"/>
      <point x="196.0" y="514.0"/>
      <point x="163.0" y="500.0"/>
      <point x="141" y="477.0" type="curve" smooth="yes"/>
      <point x="125" y="460.0"/>
      <point x="123.0" y="436.0"/>
    </contour>
  </outline>
</glyph>
<glyph name="bullet" format="2">
  <advance width="321"/>
  <unicode hex="2022"/>
  <outline>
    <contour>
      <point x="162" y="258" type="curve" smooth="yes"/>
      <point x="211" y="258"/>
      <point x="258" y="304"/>
      <point x="258" y="355" type="curve" smooth="yes"/>
      <point x="258" y="407"/>
      <point x="212" y="450"/>
      <point x="162" y="450" type="curve" smooth="yes"/>
      <point x="109" y="450"/>
      <point x="68" y="406"/>
      <point x="68" y="355" type="curve" smooth="yes"/>
      <point x="68" y="305"/>
      <point x="109" y="258"/>
    </contour>
  </outline>
</glyph>
<glyph name="minus" format="2">
  <advance width="426"/>
  <unicode hex="2212"/>
  <outline>
    <contour>
      <point x="100" y="184" type="curve" smooth="yes"/>
      <point x="327" y="184" type="line" smooth="yes"/>
      <point x="361.0" y="184.0"/>
      <point x="373.0" y="208.0"/>
      <point x="373" y="227" type="curve" smooth="yes"/>
      <point x="373.0" y="247.0"/>
      <point x="361.0" y="270.0"/>
      <point x="327" y="270" type="curve" smooth="yes"/>
      <point x="100" y="270" type="line" smooth="yes"/>
      <point x="66.0" y="270.0"/>
      <point x="54.0" y="247.0"/>
      <point x="54" y="227" type="curve" smooth="yes"/>
      <point x="54.0" y="207.0"/>
      <point x="66.0" y="184.0"/>
    </contour>
  </outline>
</glyph>
<glyph name="notequal" format="2">
  <advance width="426"/>
  <unicode hex="2260"/>
  <outline>
    <contour>
      <point x="88" y="120" type="curve" smooth="yes"/>
      <point x="315" y="120" type="line" smooth="yes"/>
      <point x="349.0" y="120.0"/>
      <point x="361.0" y="144.0"/>
      <point x="361" y="163" type="curve" smooth="yes"/>
      <point x="361.0" y="183.0"/>
      <point x="349.0" y="206.0"/>
      <point x="315" y="206" type="curve" smooth="yes"/>
      <point x="88" y="206" type="line" smooth="yes"/>
      <point x="54.0" y="206.0"/>
      <point x="42.0" y="183.0"/>
      <point x="42" y="163" type="curve" smooth="yes"/>
      <point x="42.0" y="143.0"/>
      <point x="54.0" y="120.0"/>
    </contour>
    <contour>
      <point x="101" y="251" type="curve" smooth="yes"/>
      <point x="328" y="251" type="line" smooth="yes"/>
      <point x="362.0" y="251.0"/>
      <point x="374.0" y="275.0"/>
      <point x="374" y="294" type="curve" smooth="yes"/>
      <point x="374.0" y="314.0"/>
      <point x="362.0" y="337.0"/>
      <point x="328" y="337" type="curve" smooth="yes"/>
      <point x="101" y="337" type="line" smooth="yes"/>
      <point x="67.0" y="337.0"/>
      <point x="55.0" y="314.0"/>
      <point x="55" y="294" type="curve" smooth="yes"/>
      <point x="55.0" y="274.0"/>
      <point x="67.0" y="251.0"/>
    </contour>
    <contour>
      <point x="164" y="69" type="curve" smooth="yes"/>
      <point x="326" y="337" type="line" smooth="yes"/>
      <point x="360.0" y="393.0"/>
      <point x="316.0" y="407.0"/>
      <point x="293" y="407" type="curve" smooth="yes"/>
      <point x="276.0" y="407.0"/>
      <point x="264.0" y="402.0"/>
      <point x="252" y="383" type="curve" smooth="yes"/>
      <point x="86" y="111" type="line" smooth="yes"/>
      <point x="67.0" y="80"/>
      <point x="86.0" y="56.0"/>
      <point x="105" y="47" type="curve" smooth="yes"/>
      <point x="121.0" y="40.0"/>
      <point x="148" y="43.0"/>
    </contour>
  </outline>
</glyph>
<glyph name="lessequal" format="2">
  <advance width="426"/>
  <unicode hex="2264"/>
  <outline>
    <contour>
      <point x="88" y="106" type="curve" smooth="yes"/>
      <point x="315" y="106" type="line" smooth="yes"/>
      <point x="349.0" y="106.0"/>
      <point x="361.0" y="130"/>
      <point x="361" y="149" type="curve" smooth="yes"/>
      <point x="361.0" y="169.0"/>
      <point x="349.0" y="192.0"/>
      <point x="315" y="192" type="curve" smooth="yes"/>
      <point x="88" y="192" type="line" smooth="yes"/>
      <point x="54.0" y="192.0"/>
      <point x="42.0" y="169.0"/>
      <point x="42" y="149" type="curve" smooth="yes"/>
      <point x="42.0" y="129"/>
      <point x="54.0" y="106.0"/>
    </contour>
    <contour>
      <point x="107" y="221" type="curve" smooth="yes"/>
      <point x="313" y="221" type="line" smooth="yes"/>
      <point x="346.0" y="221.0"/>
      <point x="359.0" y="244.0"/>
      <point x="359" y="264" type="curve" smooth="yes"/>
      <point x="359.0" y="283.0"/>
      <point x="347.0" y="307.0"/>
      <point x="313" y="307" type="curve" smooth="yes"/>
      <point x="181" y="307" type="line"/>
      <point x="192" y="281" type="line"/>
      <point x="334" y="343" type="line" smooth="yes"/>
      <point x="365.0" y="356.0"/>
      <point x="365" y="388.0"/>
      <point x="350" y="408" type="curve" smooth="yes"/>
      <point x="337.0" y="425.0"/>
      <point x="318" y="432.0"/>
      <point x="289" y="416" type="curve" smooth="yes"/>
      <point x="85" y="302" type="line" smooth="yes"/>
      <point x="67.0" y="292"/>
      <point x="61.0" y="278.0"/>
      <point x="61" y="264" type="curve" smooth="yes"/>
      <point x="61.0" y="245.0"/>
      <point x="73.0" y="221.0"/>
    </contour>
  </outline>
</glyph>
